<?xml version="1.0" encoding="UTF-8" standalone="no"?>
<!-- Created with Inkscape (http://www.inkscape.org/) -->
<svg
   xmlns:dc="http://purl.org/dc/elements/1.1/"
   xmlns:cc="http://creativecommons.org/ns#"
   xmlns:rdf="http://www.w3.org/1999/02/22-rdf-syntax-ns#"
   xmlns:svg="http://www.w3.org/2000/svg"
   xmlns="http://www.w3.org/2000/svg"
   xmlns:xlink="http://www.w3.org/1999/xlink"
   xmlns:sodipodi="http://sodipodi.sourceforge.net/DTD/sodipodi-0.dtd"
   xmlns:inkscape="http://www.inkscape.org/namespaces/inkscape"
   width="720"
   height="270"
   id="svg2"
   sodipodi:version="0.32"
   inkscape:version="0.46"
   sodipodi:docname="meteor.svg"
   inkscape:output_extension="org.inkscape.output.svg.inkscape"
   version="1.0"
   inkscape:export-filename="/home/nathan/images/svg/meteor-1.png"
   inkscape:export-xdpi="40.619999"
   inkscape:export-ydpi="40.619999">
  <defs
     id="defs4">
    <linearGradient
       inkscape:collect="always"
       id="linearGradient3171">
      <stop
         style="stop-color:#73490f;stop-opacity:1;"
         offset="0"
         id="stop3173" />
      <stop
         style="stop-color:#73490f;stop-opacity:0;"
         offset="1"
         id="stop3175" />
    </linearGradient>
    <inkscape:perspective
       sodipodi:type="inkscape:persp3d"
       inkscape:vp_x="0 : 526.18109 : 1"
       inkscape:vp_y="0 : 1000 : 0"
       inkscape:vp_z="744.09448 : 526.18109 : 1"
       inkscape:persp3d-origin="372.04724 : 350.78739 : 1"
       id="perspective10" />
    <radialGradient
       inkscape:collect="always"
       xlink:href="#linearGradient3171"
       id="radialGradient3275"
       gradientUnits="userSpaceOnUse"
       gradientTransform="matrix(0.2565601,0.2516203,-0.4651079,0.4742388,75.042861,307.52338)"
       cx="233.69458"
       cy="250.59244"
       fx="233.69458"
       fy="250.59244"
       r="38.57143" />
  </defs>
  <sodipodi:namedview
     id="base"
     pagecolor="#000000"
     bordercolor="#666666"
     borderopacity="1.0"
     gridtolerance="10000"
     guidetolerance="10"
     objecttolerance="10"
     inkscape:pageopacity="1"
     inkscape:pageshadow="2"
     inkscape:zoom="0.98994949"
     inkscape:cx="381.91783"
     inkscape:cy="29.55322"
     inkscape:document-units="px"
     inkscape:current-layer="layer1"
     showgrid="false"
     inkscape:window-width="1238"
     inkscape:window-height="940"
     inkscape:window-x="34"
     inkscape:window-y="0"
     width="600px"
     units="in" />
  <metadata
     id="metadata7">
    <rdf:RDF>
      <cc:Work
         rdf:about="">
        <dc:format>image/svg+xml</dc:format>
        <dc:type
           rdf:resource="http://purl.org/dc/dcmitype/StillImage" />
      </cc:Work>
    </rdf:RDF>
  </metadata>
  <g
     inkscape:label="Layer 1"
     inkscape:groupmode="layer"
     id="layer1">
    <g
       id="g3243"
       transform="matrix(0.9021427,0.4314376,-0.4314376,0.9021427,212.83066,-216.15697)">
      <path
         sodipodi:nodetypes="cccscscscsscscsccccccccscscscscscscccccc"
         id="path3225"
         d="M 47.117228,443.10316 L 122.87531,352.19345 L 268.01187,213.43653 C 268.01187,213.43653 307.42136,162.55804 327.02344,143.26061 C 354.28879,116.419 425.90768,62.717797 425.90768,62.717797 C 425.90768,62.717797 356.59592,118.31866 330.21325,145.65297 C 323.59669,152.50819 310.27691,170.37403 310.27691,170.37403 C 310.27691,170.37403 351.88829,143.63274 368.49102,130.50135 C 382.4384,119.47013 412.35097,90.628674 412.35097,90.628674 C 412.35097,90.628674 381.10362,125.30668 366.09866,138.47589 C 345.27678,156.75035 312.55278,174.99523 291.93547,193.50018 C 279.08449,205.03451 252.86025,235.76523 252.86025,235.76523 C 252.86025,235.76523 284.16511,218.27139 296.7202,209.44925 C 321.48312,192.04899 374.87065,145.65297 374.87065,145.65297 C 374.87065,145.65297 323.50304,196.19413 299.11256,215.03143 C 280.62585,229.30912 233.72137,257.29647 233.72137,257.29647 L 147.59637,342.62401 L 71.838289,428.74899 L 120.48296,404.82539 L 179.49452,347.40873 L 239.30354,300.35896 L 314.39245,229.44484 L 382.04773,162.3995 C 382.04773,162.3995 407.89857,125.93291 421.12296,112.15992 C 454.74941,77.138531 544.72826,7.6934997 544.72826,7.6934997 C 544.72826,7.6934997 458.22433,78.559742 425.90768,113.75483 C 417.81738,122.56572 401.98408,145.65297 401.98408,145.65297 C 401.98408,145.65297 440.00109,115.02267 456.21092,101.79302 C 476.61969,85.136403 523.99447,45.971272 523.99447,45.971272 C 523.99447,45.971272 473.50972,93.760156 451.42619,113.75483 C 428.30326,134.69059 383.97757,164.16758 368.20408,188.12046 C 393.48139,183.33999 426.62526,157.97475 447.43893,144.05806 C 484.69299,119.14879 561.47479,47.566179 561.47479,47.566179 C 561.47479,47.566179 483.8427,128.20878 445.04656,156.01987 C 422.07981,172.48363 362.11139,200.67727 362.11139,200.67727 L 286.3533,267.66337 L 179.49452,364.15525 L 94.964448,439.91334 L 44.724868,446.29297 L 47.117228,443.10316 z"
         style="fill:#f4ea89;fill-opacity:1;fill-rule:evenodd;stroke:none;stroke-width:1px;stroke-linecap:butt;stroke-linejoin:miter;stroke-opacity:1" />
      <path
         sodipodi:nodetypes="ccsscssscssscsccsscsscccscscsscccsscsscsscscsssc"
         id="path3223"
         d="M 40.044301,446.96498 L 31.135418,492.0662 C 31.135418,492.0662 77.705625,472.64408 95.724819,460.88512 C 118.34806,446.12163 144.89295,421.30315 164.21186,402.42057 C 185.36225,381.74787 229.91487,328.92228 229.91487,328.92228 C 229.91487,328.92228 274.09285,291.27081 292.83386,274.91218 C 316.15758,254.5534 341.87765,227.45474 370.01554,206.40875 C 381.67069,197.69117 410.09958,180.44991 421.45585,171.34641 C 440.0731,156.42231 477.13638,114.55228 477.13638,114.55228 C 477.13638,114.55228 435.14145,154.68221 415.331,169.67599 C 400.95785,180.55449 368.03936,203.19026 364.66172,201.97069 C 360.20758,200.36243 369.79043,182.93471 374.12742,175.80085 C 383.33861,160.64949 414.21739,132.37004 414.21739,132.37004 C 414.21739,132.37004 377.9119,162.1687 365.77534,178.02807 C 357.60032,188.71073 344.61674,217.56124 344.61674,217.56124 L 289.49303,265.44649 C 289.49303,265.44649 245.6127,308.22101 225.46043,325.02465 C 207.21704,340.23658 181.27392,358.49134 161.98464,372.35309 C 149.1159,381.60087 118.55383,402.42057 118.55383,402.42057 C 118.55383,402.42057 144.38258,376.01352 155.85978,365.11462 C 165.80855,355.66715 179.64326,343.68638 189.82489,334.49033 C 210.8885,315.4657 259.98235,271.01454 259.98235,271.01454 L 327.35578,210.87957 L 256.64152,268.78732 C 256.64152,268.78732 205.09116,311.06627 184.25685,330.5927 C 171.84544,342.22497 144.72368,371.23948 144.72368,371.23948 C 144.72368,371.23948 153.97926,353.49429 159.2006,346.74005 C 174.87711,326.46114 219.43789,286.14861 219.43789,286.14861 C 219.43789,286.14861 163.29481,336.46417 149.73492,351.75129 C 140.33395,362.34975 131.1186,379.37012 120.78105,389.05724 C 111.21378,398.02256 84.588715,413.55667 84.588715,413.55667 L 114.6562,374.0235 L 184.25685,309.4341 C 184.25685,309.4341 217.71153,275.80469 234.36931,264.33288 C 240.70667,259.9685 250.77182,256.87199 257.19832,252.63997 C 272.95294,242.26512 305.64038,212.54999 305.64038,212.54999 C 305.64038,212.54999 247.45136,257.97671 241.60778,255.9808 C 235.29664,253.82519 246.59669,241.13802 249.95985,235.37901 C 254.69593,227.2691 269.44804,210.87957 269.44804,210.87957 C 269.44804,210.87957 248.38573,231.94298 239.93736,241.50386 C 230.97192,251.64993 220.81345,266.71697 211.5403,276.58259 C 181.41896,308.62839 103.52009,375.69392 103.52009,375.69392 C 103.52009,375.69392 125.24274,343.84798 136.3716,331.7063 C 151.79994,314.87385 193.16572,281.03703 193.16572,281.03703 C 193.16572,281.03703 150.7229,312.88159 134.70118,328.92228 C 122.20108,341.43717 108.96077,361.19698 97.395232,374.58031 C 85.412278,388.44666 67.096995,404.95263 56.191652,419.68153 C 50.532041,427.32547 40.044301,446.96498 40.044301,446.96498 z"
         style="fill:#efdd59;fill-opacity:1;fill-rule:evenodd;stroke:none;stroke-width:1px;stroke-linecap:butt;stroke-linejoin:miter;stroke-opacity:1" />
      <path
         sodipodi:nodetypes="ccscccccscscsscsssscsscssscsscsssscsssc"
         id="path3201"
         d="M 14.081066,496.43691 C 12.905343,492.90974 16.432511,470.57102 16.432511,470.57102 C 22.441762,462.60222 27.762295,454.0273 34.460257,446.66466 C 44.875589,435.21575 56.668349,424.9791 67.772397,414.13633 C 80.574706,398.46002 93.377028,382.78373 106.17933,367.10742 C 95.859095,380.56291 85.53888,394.0184 75.218635,407.4739 C 110.22905,375.59875 145.23945,343.7236 180.24986,311.84846 C 135.06477,353.3162 125.90534,365.40915 98.733094,392.1895 C 87.498409,406.03691 61.913284,434.34373 65.029046,433.73171 C 69.22889,432.90674 102.12962,403.16292 120.67991,387.87853 C 135.83367,375.7294 146.57257,369.7896 160.59878,356.41929 C 182.88934,335.1711 182.14075,323.39674 268.98132,260.19066 C 215.51384,297.31187 174.12238,342.6173 173.97933,346.33632 C 173.8611,349.41037 210.46429,318.25698 228.84639,304.40222 C 254.48856,285.07547 280.31691,265.99528 306.05217,246.79181 C 278.74928,268.73863 251.6107,290.89352 224.1435,312.63227 C 202.7529,329.56174 180.47393,345.40043 159.47875,362.79644 C 139.32365,379.49639 106.92201,407.44489 100.69263,414.92014 C 97.777502,418.41829 122.03536,402.7728 132.04523,395.71668 C 161.8793,374.6861 190.83136,352.34557 220.22443,330.66002 C 200.36778,346.46695 179.99932,361.69145 160.65447,378.08084 C 151.78199,385.59781 143.60732,393.97218 135.5724,402.3791 C 129.49866,408.73404 124.07644,415.70396 118.32846,422.36639 C 137.00939,408.25773 156.18882,394.75582 174.37125,380.04037 C 187.01887,369.80437 198.66951,358.35482 210.81864,347.51205 C 210.81864,347.51205 249.22559,304.01031 255.1042,298.9155 C 260.98281,293.82071 304.09265,255.41377 304.09265,255.41377 C 283.32154,276.57678 243.82495,314.05395 241.77933,318.90279 C 240.29778,322.41464 276.95326,294.13175 293.51112,280.49585 C 310.26541,266.69822 325.64756,251.23342 341.71575,236.60221 C 323.94928,254.76059 290.59082,288.49517 270.12637,303.54778 C 256.54747,313.52412 201.80477,363.18835 200.23714,363.97216 C 198.66951,364.75598 171.62789,396.8924 171.62789,396.8924 C 159.47875,405.12245 136.36774,419.65328 135.18049,421.58257 C 134.27758,423.04982 155.29841,411.91553 165.35737,407.08199 C 147.32962,419.49239 128.57247,430.97748 111.27413,444.31321 C 98.918139,453.83875 87.33554,464.56374 76.394365,475.6658 C 69.569057,482.59149 66.000122,491.19501 57.974707,498.39644 C 48.192598,507.17423 28.71228,497.0901 14.081066,496.43691 z"
         style="fill:#f0b015;fill-opacity:1;fill-rule:evenodd;stroke:none;stroke-width:1px;stroke-linecap:butt;stroke-linejoin:miter;stroke-opacity:1" />
      <path
         sodipodi:nodetypes="csssscscscssssssccscscscssssscsscccsssscscscsscscsssssss"
         id="path3199"
         d="M 18.94769,508.13761 C 10.29259,500.35578 8.1393829,483.13463 14.236642,473.22044 C 17.582906,467.77939 21.290412,465.60793 27.797535,458.30817 C 34.304663,451.00842 36.837561,444.55571 42.502926,439.41173 C 68.320712,415.97004 89.371084,397.3347 112.06017,376.50538 C 123.17978,366.29721 134.04505,355.81372 145.0375,345.46789 C 134.13743,356.55271 116.02697,373.41438 112.33728,378.72234 C 110.76168,380.98901 123.60685,371.70197 129.24164,368.19177 C 114.55425,380.10796 88.433515,400.10521 85.17948,403.94031 C 83.260599,406.20186 104.20842,392.30125 113.72288,386.48172 C 97.557525,399.04451 80.340977,410.60973 65.226804,424.1701 C 60.573047,428.34544 52.247791,439.22611 54.41911,439.68885 C 57.882576,440.42697 74.591895,433.63654 82.13116,427.77267 C 87.062323,423.93733 87.429878,415.33549 91.830376,410.5912 C 99.25369,402.58794 109.60534,397.15656 117.60258,389.53005 C 123.55372,383.85478 128.02215,376.68641 133.67556,370.68586 C 138.55272,365.50921 144.02139,360.89426 149.19431,355.99846 C 141.06544,365.05108 132.93658,374.10367 124.80771,383.15628 C 131.55097,378.35286 138.4325,373.71831 145.0375,368.74601 C 146.65374,367.52929 147.99345,365.97481 149.47143,364.58921 C 147.43921,366.99092 145.77204,369.77067 143.37478,371.79434 C 131.54652,381.77922 118.98817,391.00803 106.79488,400.61487 C 110.58219,399.04451 114.60309,397.89738 118.15682,395.90381 C 122.17772,393.6482 125.73144,390.54616 129.51876,387.86732 C 125.26958,391.56226 121.38407,395.79598 116.77121,398.95214 C 112.60859,401.80026 106.63842,402.39576 103.19231,405.88016 C 98.324812,410.80174 89.869465,423.14881 91.830376,424.1701 C 94.303395,425.45814 108.97559,417.65231 116.49409,412.80817 C 122.73924,408.78445 127.37593,402.4113 133.12132,397.56655 C 144.46503,388.00103 156.21469,378.90709 167.76138,369.57738 C 156.95368,379.27659 145.36023,388.27727 135.33828,398.67503 C 130.58046,403.61126 128.53152,411.10074 123.4221,415.57937 C 113.56702,424.21778 101.43722,430.54388 90.444769,438.02614 C 81.669286,445.97026 72.893807,453.91437 64.118322,461.85849 C 63.009841,465.36869 61.901356,468.87888 60.79288,472.38907 C 66.704782,467.21615 72.213069,461.52084 78.528585,456.87033 C 92.535234,446.55634 107.82754,437.89799 121.75938,427.49556 C 128.61158,422.37925 134.15833,415.58856 140.8807,410.31409 C 146.16688,406.16645 152.87604,403.74866 157.78504,399.22926 C 164.5151,393.03334 169.7936,385.18849 175.79787,378.16811 C 170.16308,385.65036 165.27921,393.92796 158.89353,400.61487 C 155.48763,404.18142 150.57992,406.15728 146.4231,408.92848 C 152.15026,406.34203 158.36865,404.51822 163.60457,401.16911 C 168.62211,397.95969 172.65717,393.22499 177.18348,389.25292 C 172.74954,394.05635 169.1184,399.92269 163.88169,403.66319 C 156.83272,408.69817 147.46986,410.57471 140.32646,415.57937 C 132.04348,421.38241 125.1772,429.25065 117.60258,436.08629 C 122.0365,433.5922 126.62242,431.33971 130.90435,428.60403 C 136.59876,424.96594 141.98918,420.84466 147.53158,416.96497 C 141.71206,421.76839 136.27899,427.13374 130.07299,431.37524 C 123.43907,435.90922 115.38732,438.44772 109.01184,443.29142 C 101.1618,449.25541 94.329573,456.70143 87.396445,463.79833 C 82.598145,468.70999 78.794869,474.74885 73.81754,479.31708 C 72.051604,480.93787 68.433826,482.41778 65.226804,485.96797 C 62.586628,488.89067 57.855057,502.60388 51.093665,506.75203 C 42.399432,512.08594 26.53269,514.95731 18.94769,508.13761 z"
         style="fill:#ee920e;fill-opacity:1;fill-rule:evenodd;stroke:none;stroke-width:1px;stroke-linecap:butt;stroke-linejoin:miter;stroke-opacity:1" />
      <path
         sodipodi:nodetypes="cssssscscccscscccssccccs"
         id="path3197"
         d="M 16.432511,474.68605 C 9.2711817,481.84738 10.803938,498.58104 17.216326,505.05886 C 22.968594,510.86985 39.779675,513.82903 44.453897,506.03864 L 63.853318,473.70627 C 68.083516,466.65595 76.129503,465.69883 81.685116,459.79356 C 85.469962,455.7705 85.43398,448.56486 91.874703,443.9213 C 117.56045,425.4027 124.33771,419.81899 157.32326,393.36523 C 125.05622,418.31667 99.463214,432.30754 79.33367,450.58374 C 73.923912,455.49541 68.490892,460.38142 63.069504,465.28026 C 67.11922,457.63806 71.168931,449.99587 75.218635,442.35367 C 76.982224,440.06754 78.745805,437.78141 80.509393,435.49529 C 91.874703,429.81263 104.52305,425.89124 114.60534,418.4473 C 125.4901,410.4109 126.55852,403.35887 143.41055,389.05425 C 130.08569,397.87217 121.89694,408.81979 109.90246,416.68372 C 102.17093,421.75274 92.789165,424.12998 84.232513,427.8531 C 76.067773,432.03344 67.903033,436.21379 59.738291,440.39414 C 56.015173,444.6398 52.292055,448.88546 48.568931,453.13112 C 45.564305,455.02534 42.559676,456.91957 39.555058,458.81379 C 39.555058,458.81379 46.021533,447.44847 46.609393,446.66466 C 47.197253,445.88084 50.52847,438.63055 50.52847,438.63055 C 70.515754,422.49703 69.340024,419.29644 91.0909,403.75077 C 73.193786,415.70396 54.316909,428.83286 40.926737,443.72535 C 38.705921,448.10165 36.485112,452.47795 34.264302,456.85425 L 16.432511,474.68605 z"
         style="fill:#e57e0f;fill-opacity:1;fill-rule:evenodd;stroke:none;stroke-width:1px;stroke-linecap:butt;stroke-linejoin:miter;stroke-opacity:1" />
      <path
         sodipodi:nodetypes="csssscsssccccssssccccsccccccccccsscsscssscssscssscsscsssssss"
         id="path3195"
         d="M 21.527308,501.72766 C 22.079831,504.96862 21.119391,509.33843 22.703029,511.52536 C 23.862743,513.12687 27.394762,513.12046 29.757368,513.09298 C 33.012104,513.05515 36.491331,512.49525 39.555058,511.32942 C 43.87226,509.68657 48.713972,507.88109 51.900143,504.66697 C 56.160214,500.36953 58.562571,494.08546 61.893788,488.79471 C 63.983959,485.72477 65.879093,482.49334 68.164301,479.58489 C 69.471576,477.92109 71.061858,476.45741 72.67124,475.07795 C 74.719664,473.32216 77.026822,471.86782 79.137715,470.17911 C 81.272487,468.47129 83.318057,466.65194 85.408236,464.88836 C 88.282219,462.21032 91.156211,459.53228 94.030202,456.85426 C 101.08454,450.58374 108.13887,444.31321 115.19321,438.04269 C 103.9158,447.37047 92.63839,456.69824 81.360978,466.02602 C 78.266464,468.42773 75.165163,470.82073 72.077444,473.23115 C 68.006215,476.40934 64.240999,480.06348 59.884141,482.79181 C 54.726531,486.02157 47.647805,490.51276 43.534031,491.10542 C 42.197771,491.29794 42.236217,486.47182 43.534031,485.14733 C 48.979483,479.58999 57.020562,475.35574 63.763828,470.45994 C 66.350283,468.38154 68.936738,466.30314 71.523198,464.22473 C 73.416854,463.02388 75.310511,461.82302 77.204168,460.62217 C 78.405026,459.65225 79.605879,458.68232 80.806732,457.7124 C 82.00759,455.86493 83.624722,454.18929 84.409302,452.17 C 85.391034,449.64329 85.223689,448.93981 89.779532,445.8368 C 92.550739,443.7584 95.909801,441.77797 98.680999,439.69957 C 102.93019,436.37412 107.17936,433.04868 111.42854,429.72324 C 102.14502,436.28176 92.861477,442.84027 83.577941,449.39879 C 82.146148,451.61576 80.71436,453.83271 79.282573,456.04969 C 75.818566,458.26664 72.354559,460.48361 68.890552,462.70057 C 69.768105,460.8531 70.645651,459.00563 71.523198,457.15816 C 72.40075,456.04969 73.278297,454.94119 74.155839,453.83271 C 80.668175,447.68988 87.180502,441.54704 93.692835,435.4042 C 87.734744,440.39238 81.776656,445.38054 75.818566,450.36871 C 73.370669,451.84669 68.699321,455.49638 68.474874,454.80264 C 68.191272,453.92603 77.974174,438.83184 80.806732,436.51269 C 85.364059,432.78138 91.244936,430.5084 96.464042,427.50627 C 90.50595,430.69316 83.379213,432.55803 78.58977,437.06693 C 72.340586,442.95005 69.539904,452.83939 63.348151,458.68232 C 59.702126,462.12293 54.715474,463.32902 49.076446,464.91754 C 50.797922,459.68298 52.632458,455.9449 55.416592,452.15319 C 57.482067,449.34021 61.242309,447.69727 63.625266,445.10343 C 66.461412,442.01629 68.400219,437.94893 71.661755,435.4042 C 76.806211,431.3904 83.116072,428.75332 88.843226,425.42787 C 68.684262,435.37652 69.88796,432.74062 60.992627,437.34404 C 58.01797,438.88346 55.362425,441.28603 53.23325,443.85638 C 50.235698,447.47505 48.859471,452.57389 45.612435,455.91112 C 42.208581,459.40953 37.391195,461.54591 33.280574,464.3633 C 34.573806,462.2849 35.867032,460.20649 37.160263,458.12809 C 37.160263,458.12809 46.60613,448.52685 47.298939,447.9726 C 47.991735,447.41836 48.922266,440.94542 50.979782,439.18183 C 55.02534,435.71421 61.084999,429.72324 65.010868,426.12066 C 60.115081,430.18511 54.56575,433.69907 50.323486,438.31397 C 47.730107,441.13514 46.975782,445.52826 44.503954,448.42888 C 42.44948,450.83973 39.331042,452.30856 36.744584,454.2484 C 38.592051,450.73821 39.370645,447.48787 41.601153,444.2077 C 43.266763,441.75829 50.462048,434.71141 49.90781,434.98852 C 49.353562,435.26564 40.806296,443.11026 39.238667,445.65766 C 37.030039,449.24668 35.93571,453.57948 33.419135,456.88104 C 30.901354,460.18419 26.728479,462.20344 24.135602,465.47177 C 21.232259,469.13145 17.248976,473.23774 16.930467,477.66508 C 16.379544,485.32305 20.155643,493.68186 21.527308,501.72766 z"
         style="fill:#dc6b0f;fill-opacity:1;fill-rule:evenodd;stroke:none;stroke-width:1px;stroke-linecap:butt;stroke-linejoin:miter;stroke-opacity:1" />
      <path
         sodipodi:nodetypes="cssssssssssssssscsscccssscscscscscccsscssccccssscscscsscscssscsscscssscscccsccscsccs"
         id="path3193"
         d="M 38.617185,451.15252 C 36.514581,453.07029 35.225216,453.87538 33.419135,456.04969 C 30.46798,459.60253 28.553963,464.06724 25.521204,467.55018 C 22.64206,470.8567 18.286232,472.99329 15.683427,476.41803 C 13.898492,478.76664 12.357981,481.98212 12.357981,484.87022 C 12.357981,489.18725 14.298401,493.73985 15.683427,498.03343 C 16.60774,500.8988 17.023108,505.03497 19.285992,506.34707 C 22.51933,508.22182 28.118525,508.58151 32.172093,507.59412 C 38.926225,505.94888 48.845111,501.14462 51.709087,498.44912 C 52.770986,497.44968 43.877127,497.96097 43.949716,496.50927 C 44.061877,494.26604 49.56658,490.47593 52.26333,487.36431 C 53.769568,485.62632 54.67166,483.12441 56.558696,481.96045 C 59.613646,480.07609 63.59701,479.51386 67.089273,478.21932 C 68.954674,477.52784 71.066577,477.12029 72.631679,476.00236 C 73.976349,475.04189 74.514995,473.03538 75.818566,471.98411 C 77.378564,470.72604 85.540246,463.78428 88.011868,461.45354 C 94.454289,455.37829 101.31365,449.7221 107.96453,443.85638 C 94.509415,454.79028 90.523365,457.25598 83.439384,463.25481 C 79.330798,466.73403 76.052483,471.37084 71.800324,474.4782 C 70.048207,475.75858 67.551136,475.77142 65.426551,476.41803 C 63.163403,477.11084 60.90025,477.80364 58.637097,478.49644 C 60.623124,476.00236 62.609156,473.50827 64.595189,471.01418 C 66.488846,469.12053 68.116324,466.87039 70.276159,465.33322 C 73.243059,463.22164 77.14967,462.32849 79.975371,460.06792 C 82.692082,457.89456 84.276097,454.35723 86.903394,452.03143 C 89.910879,449.36906 92.672486,447.31479 96.879721,445.10343 C 91.955912,447.28676 87.702408,450.28372 83.577941,453.41704 C 81.744316,454.81002 80.529612,456.92723 79.005453,458.68232 C 80.806732,455.54163 81.382762,453.07102 83.429534,450.14202 C 84.061594,449.23752 86.1644,447.67867 87.041948,447.18182 C 85.270045,447.71365 83.65328,448.6151 82.608022,449.95303 C 80.189274,453.04902 78.63596,456.97342 76.649927,460.48361 C 74.386779,461.73065 71.999112,462.79139 69.860476,464.22473 C 67.657553,465.70117 65.703671,467.55018 63.625266,469.2129 C 62.932468,469.9057 62.23966,470.59851 61.546862,471.29131 C 62.193481,469.85952 62.84009,468.42773 63.486708,466.99594 C 65.057053,465.56415 66.919153,464.36274 68.197754,462.70057 C 69.690362,460.76018 70.329831,458.16289 71.800324,456.18824 C 73.562903,453.82134 75.374865,451.94467 77.896972,449.67591 C 75.484053,451.21824 73.225679,453.53587 71.246072,455.77256 C 69.669306,457.55411 68.868873,460.01668 67.227836,461.73065 C 64.712068,464.35823 61.593049,466.4417 58.775663,468.79723 C 57.251496,470.09045 55.727333,471.38368 54.203175,472.67691 C 51.385783,474.20107 48.568389,475.72524 45.751002,477.24939 C 43.210725,477.98839 40.670454,478.72737 38.130185,479.46637 C 40.485708,477.15703 42.785196,474.7876 45.196754,472.53835 C 47.588618,470.30748 49.855154,467.8404 52.54045,466.02602 C 54.98189,464.3764 58.174877,463.84434 60.576945,462.14633 C 63.532542,460.05703 65.9346,457.15816 68.613438,454.66408 C 65.749857,457.01961 63.160045,459.85339 60.022703,461.73065 C 57.525269,463.22502 54.480289,463.76287 51.709087,464.77898 C 53.648927,462.56201 55.416579,460.16092 57.52862,458.12809 C 59.11152,456.60454 61.038808,455.44925 62.793905,454.10984 C 60.207447,455.58781 57.436842,456.80876 55.034532,458.54377 C 52.448672,460.41133 50.407999,463.03781 47.829399,464.91754 C 45.466018,466.64037 42.748862,467.87349 40.208588,469.35146 C 38.36112,470.87563 34.885287,474.27452 34.66618,473.92395 C 34.423417,473.53553 37.437384,469.39765 38.822986,467.1345 C 40.393333,464.96373 41.583104,462.39752 43.534031,460.62217 C 46.201776,458.19452 49.959648,456.93281 52.679007,454.52552 C 55.594433,451.94465 57.224943,447.79996 60.438381,445.65766 C 67.062726,441.24143 72.197663,438.35456 82.192345,434.84996 C 77.573666,436.32793 72.660425,437.20832 68.336317,439.28389 C 64.577738,441.088 61.213095,443.85664 57.944296,446.48903 C 55.993989,448.05963 54.434104,450.09159 52.679007,451.89287 C 53.787493,449.16786 54.381063,446.09732 56.004452,443.71782 C 57.752694,441.15533 60.530753,439.28389 62.793905,437.06693 C 59.976518,439.37626 56.62136,441.23308 54.341732,443.99494 C 51.817937,447.05261 50.902106,451.47284 48.383642,454.52552 C 46.329618,457.01525 42.852104,458.26481 40.624271,460.62217 C 38.880044,462.46781 37.853065,464.96373 36.467463,467.1345 C 34.250499,468.42773 30.803309,471.15515 29.81657,471.01418 C 29.186772,470.92422 31.017426,467.96585 31.617852,466.4417 C 34.019565,463.90143 35.931391,460.38138 38.822986,458.82088 C 36.306488,458.82921 33.985945,463.14852 31.959331,463.94065 C 33.668239,461.76987 35.515117,458.53682 37.575944,456.74248 C 40.872784,453.87196 44.677495,451.46039 48.522199,449.26023 C 45.181306,450.08038 42.624227,452.66412 40.557031,453.28832 C 42.249129,450.21895 46.123445,448.82629 47.690841,446.62758 C 49.448892,444.16142 48.116204,442.2609 51.709087,438.31397 C 48.680294,440.71008 48.474524,443.57077 46.443798,445.79622 C 45.102888,447.26571 43.210725,448.19794 41.59419,449.39879 C 43.072167,447.78226 42.590605,447.04751 46.028116,444.54918 C 43.459829,445.3133 40.717576,449.23679 38.617185,451.15252 z"
         style="fill:#d3540f;fill-opacity:1;fill-rule:evenodd;stroke:none;stroke-width:1px;stroke-linecap:butt;stroke-linejoin:miter;stroke-opacity:1" />
      <path
         sodipodi:nodetypes="cssscsscsscscsscsscsscsscccsssccsscsssccccccscsscsscssssssssc"
         id="path3191"
         d="M 14.668927,486.83518 C 15.126152,484.1898 15.032308,481.31235 16.040603,478.89905 C 17.024504,476.54414 18.853634,474.40616 20.645515,472.53055 C 22.348142,470.74836 24.714411,469.61197 26.52413,467.92564 C 27.588396,466.93393 28.353034,465.6395 29.267481,464.49645 C 28.38569,465.99875 27.701611,467.66772 26.622107,469.00339 C 25.774733,470.05183 24.431278,470.68129 23.486845,471.64877 C 23.092261,472.05297 22.898984,472.62853 22.605053,473.11842 C 24.205342,472.69385 25.999639,472.63102 27.405922,471.84471 C 29.036925,470.93275 30.173821,469.15309 31.716906,468.02362 C 33.341743,466.8343 35.178754,465.93344 36.909677,464.88836 C 36.060545,465.73749 35.062531,466.47932 34.362278,467.43575 C 33.723513,468.30822 33.38251,469.39529 32.892624,470.37506 C 35.178754,469.03604 37.357953,467.4509 39.751008,466.35801 C 41.50564,465.55668 43.682883,465.61798 45.335692,464.69241 C 46.948779,463.78907 48.14436,462.145 49.548699,460.87129 C 48.438294,462.21032 47.471699,463.70791 46.217482,464.88836 C 45.250891,465.79809 43.905037,466.28939 42.88627,467.14182 C 42.304753,467.6284 41.906497,468.31755 41.416615,468.9054 C 42.52702,468.54616 43.681165,468.29596 44.747831,467.82766 C 47.698216,466.53237 50.391009,464.50367 53.46777,463.61466 C 54.787749,463.23326 56.831647,462.96147 61.305923,462.04702 C 54.970085,463.87593 53.117283,465.18719 51.312279,466.35801 C 49.492137,467.53864 48.120284,469.39317 46.413435,470.76696 C 45.442248,471.54866 44.32326,472.13864 43.278173,472.82448 C 43.40881,474.26148 43.539449,475.69847 43.670085,477.13547 C 45.041762,478.11523 46.413435,479.095 47.785113,480.07477 C 49.679331,478.34385 51.387171,476.32686 53.46777,474.882 C 54.914341,473.87744 57.034809,473.81469 58.366618,472.72651 C 59.712841,471.62654 60.257066,469.60252 61.501879,468.31755 C 63.294348,466.46725 65.486268,464.98633 67.47847,463.32072 C 66.270083,464.75772 65.061694,466.19472 63.853318,467.63171 C 64.931063,467.30512 66.085108,467.14648 67.086556,466.65194 C 68.730492,465.84012 70.140815,464.52879 71.789454,463.71263 C 73.439372,462.89584 75.251295,462.40628 76.982224,461.7531 C 73.03049,463.87593 71.766855,464.74237 70.417776,466.35801 C 69.003169,468.05212 67.493232,469.7449 65.81286,471.15888 C 64.815193,471.99837 63.322343,472.24338 62.383662,473.11842 C 61.395468,474.03962 60.816036,475.40455 60.032229,476.54761 C 58.725868,477.52738 57.419503,478.50714 56.11315,479.48691 C 54.480202,481.51177 52.847254,483.53662 51.214306,485.56147 C 49.744652,487.03113 48.274992,488.50078 46.805346,489.97043 C 45.760259,491.14617 44.715171,492.32189 43.670085,493.49761 C 45.629622,493.269 47.589155,493.04038 49.548699,492.81177 C 50.855056,492.15858 52.224265,491.61334 53.46777,490.85223 C 56.012705,489.29455 58.431934,487.52102 60.914014,485.8554 C 63.134822,483.56928 65.055785,480.82844 67.576443,478.99703 C 69.236133,477.79116 71.736334,477.80961 73.455054,476.74356 C 74.316389,476.20932 74.696095,475.0453 75.316618,474.19616 C 74.565459,475.53517 74.184705,477.26523 73.063149,478.21321 C 71.44136,479.58401 68.852469,479.87313 67.086556,481.15252 C 65.65189,482.19192 64.669796,483.83055 63.461413,485.16957 C 59.901587,491.04818 56.859357,497.36885 52.781934,502.80541 C 50.980748,505.20701 48.427028,507.30028 45.825575,508.68401 C 43.822117,509.74966 41.268724,510.10885 38.967196,510.15365 C 36.239247,510.20684 33.376205,509.71613 30.737135,508.97797 C 28.705976,508.40981 26.887342,507.14062 24.956498,506.23462 C 22.641678,505.1484 19.336824,504.80011 18.000141,503.00137 C 16.691447,501.24028 17.811972,497.85269 17.020372,495.55512 C 16.472956,493.96628 14.400509,492.89005 13.983089,491.34211 C 13.616694,489.9834 14.440314,488.33749 14.668927,486.83518 z"
         style="fill:#cb440e;fill-opacity:1;fill-rule:evenodd;stroke:none;stroke-width:1px;stroke-linecap:butt;stroke-linejoin:miter;stroke-opacity:1" />
      <path
         sodipodi:nodetypes="cscscccccccccccccccssssscsccsscssscsssscssccc"
         id="path3189"
         d="M 35.635979,468.41553 C 33.48049,469.49327 31.22702,471.25685 29.365462,473.21639 C 28.055013,474.5958 26.948693,476.1557 25.740314,477.62535 C 25.740314,477.62535 22.99696,483.30801 22.605053,483.30801 C 22.213147,483.30801 19.665749,479.38894 19.665749,479.38894 C 19.600429,478.86639 19.535113,478.34385 19.469794,477.8213 C 18.849274,479.16032 18.228753,480.49934 17.608234,481.83836 C 17.053032,483.56928 16.497829,485.30022 15.942626,487.03113 C 15.452741,484.67969 14.962858,482.32824 14.472975,479.97679 C 14.015749,481.90367 13.264591,482.55685 13.101298,485.75743 C 13.035979,487.8476 14.048409,489.34992 14.668927,489.97043 C 15.811992,491.17882 16.955052,492.3872 18.098117,493.59558 C 18.914591,498.72304 19.731065,503.8505 20.547539,508.97797 C 20.743494,510.74154 21.82124,511.23143 22.605053,511.91726 C 23.127595,509.63111 23.35621,506.46325 25.642339,506.82246 C 27.079332,506.13663 28.516326,505.4508 29.953323,504.76495 C 31.716906,506.10398 33.48049,507.44299 35.244074,508.78203 C 35.897251,509.30458 36.550431,509.82708 37.203612,510.34962 C 39.032511,511.16609 41.449276,510.02305 44.747831,508.39008 C 42.592337,507.54094 41.906671,506.73022 41.220661,505.54875 C 40.730949,504.70537 40.531776,502.77089 41.220661,502.31553 C 42.458653,501.49719 45.149209,502.21748 47.001296,501.72766 C 49.100946,501.1724 51.42136,500.47114 53.075864,499.18027 C 54.393326,498.15236 54.970998,496.24154 55.917196,494.7713 C 57.093829,492.94299 58.268641,491.11351 59.444364,489.2846 C 56.864307,491.21148 54.506021,493.6541 51.704186,495.06524 C 50.031741,495.90757 47.91575,495.71841 46.021529,496.04501 C 46.805342,493.23633 47.589155,490.42767 48.372977,487.61899 C 50.169219,485.88806 51.706199,483.77699 53.761701,482.42622 C 56.278453,480.77236 59.270204,479.77243 62.089737,478.60512 C 64.397658,477.64961 66.792629,476.90686 69.14407,476.05772 C 67.315175,476.41697 65.484124,477.02673 63.657363,477.13547 C 62.740769,477.19003 60.871913,477.14761 60.914014,476.54761 C 61.002549,475.28606 62.928835,473.16265 64.049272,471.55079 C 64.790389,470.48462 65.682224,469.52593 66.498696,468.5135 C 64.735109,469.75454 62.776266,470.78634 61.207952,472.23662 C 59.738996,473.59501 58.311214,475.56691 56.70101,476.64558 C 54.947333,477.82037 51.451173,479.55511 51.116325,478.99703 C 50.765336,478.41205 52.165052,476.12582 53.565752,474.29414 C 54.712451,472.7946 57.61546,470.5057 58.758529,469.00339 C 57.092921,470.08113 55.427309,471.15888 53.761701,472.23662 C 53.761701,472.23662 49.002248,476.38463 48.568931,476.44963 C 46.609393,476.74356 44.453897,473.21639 44.453897,473.21639 C 42.461702,472.92246 36.289156,472.26928 33.872395,473.21639 C 34.231642,471.74674 34.982803,469.98315 35.635979,468.41553 z"
         style="fill:#c1340e;fill-opacity:1;fill-rule:evenodd;stroke:none;stroke-width:1px;stroke-linecap:butt;stroke-linejoin:miter;stroke-opacity:1" />
      <path
         sodipodi:nodetypes="cscscccscscsccccscscsccsscsccs"
         id="path3187"
         d="M 29.123769,474.33963 C 27.71219,475.49785 26.099907,476.74121 24.412722,477.38796 C 23.328703,477.8035 22.011011,477.48033 20.810155,477.52652 C 19.978792,478.54263 19.279611,479.70766 18.316071,480.57485 C 17.432141,481.37038 16.283853,481.86808 15.267745,482.51469 C 15.313933,483.94648 15.360118,485.37826 15.406304,486.81005 C 15.129185,488.3804 14.852064,489.95075 14.574945,491.5211 C 14.944439,493.04527 15.465632,494.54724 15.683427,496.09359 C 15.9275,497.8265 15.868173,499.60378 15.960547,501.35888 C 17.623268,502.05168 19.566428,502.40735 20.948713,503.43728 C 21.92195,504.16244 22.334319,505.56187 23.027119,506.62416 C 23.904667,506.57797 24.801331,506.35352 25.659764,506.48562 C 27.20304,506.72304 28.708088,507.31698 30.23225,507.73266 C 31.479292,507.2246 32.726333,506.71656 33.973376,506.20849 C 35.174232,506.43943 36.375088,506.67036 37.575944,506.90131 C 38.545866,506.48562 39.515787,506.06991 40.485708,505.65427 C 40.993764,504.73051 41.231362,503.50965 42.009871,502.88305 C 43.125019,501.98549 44.781077,501.68219 46.166682,501.08176 C 46.351426,499.92709 46.169094,498.56688 46.720917,497.61775 C 47.323762,496.58086 48.660766,495.95503 49.630682,495.12367 C 48.891695,493.41476 47.614197,491.71532 47.413718,489.99694 C 47.290892,488.94412 48.245084,487.87235 48.660766,486.81005 C 47.967965,485.42446 47.27516,484.03885 46.582364,482.65324 C 46.720917,481.12909 47.441384,479.38618 46.998041,478.08077 C 46.610026,476.93828 44.566479,476.43333 44.088275,475.30955 C 43.642746,474.26256 43.487847,473.64683 44.226834,471.56843 C 41.224694,472.53835 38.379237,472.39768 35.220417,474.4782 C 34.501741,474.95154 34.019565,472.90784 33.419135,472.12267 C 32.218282,472.39979 31.017426,472.67691 29.81657,472.95403 C 29.585635,473.4159 29.513473,474.01988 29.123769,474.33963 z"
         style="fill:#b3230c;fill-opacity:0.84482757;fill-rule:evenodd;stroke:none;stroke-width:1px;stroke-linecap:butt;stroke-linejoin:miter;stroke-opacity:1" />
      <path
         sodipodi:nodetypes="ccscscscscccscscscccsccscsscssscccscscs"
         id="path3185"
         d="M 18.674691,481.068 C 17.94945,481.47793 16.548491,480.83176 15.485392,480.71363 C 15.898821,481.30425 16.829544,481.94015 16.725675,482.48547 C 16.593301,483.18044 15.42633,483.78482 14.776658,484.43449 C 15.30821,485.14322 16.484162,485.94 16.371311,486.56069 C 16.247918,487.23935 14.835723,487.74191 14.067927,488.33252 C 14.658537,489.04126 15.664431,489.63218 15.839759,490.45872 C 16.077861,491.5812 15.485392,492.93928 15.30821,494.17957 C 15.780698,495.41986 16.582317,496.64603 16.725675,497.90042 C 16.818561,498.71317 16.253188,499.55413 16.016944,500.38098 C 17.198166,500.85348 18.379385,501.32597 19.560607,501.79845 C 19.855912,503.03874 20.151221,504.27902 20.446526,505.51931 C 21.155257,505.22399 22.103091,504.32812 22.572723,504.63338 C 23.284312,505.09594 23.517706,506.75959 23.990195,507.8227 C 24.639867,507.23204 25.281631,505.975 25.939208,506.05087 C 26.817218,506.15218 27.711038,507.58647 28.596957,508.35424 C 29.719119,508.05893 30.879273,507.35423 31.963442,507.46834 C 33.123596,507.59045 34.207766,508.53142 35.329924,509.06299 C 36.03866,508.11801 36.747392,507.173 37.456124,506.22806 C 38.932651,506.34615 40.409179,506.46428 41.885707,506.58241 C 41.885707,506.58241 39.720888,503.978 40.468245,503.57028 C 41.305865,503.11333 43.303174,503.92465 43.303174,503.92465 C 44.189089,503.21591 45.075008,502.50719 45.960926,501.79845 C 45.606555,501.44408 44.652332,500.94812 44.897822,500.73535 C 45.538246,500.18032 47.378392,499.9085 48.618673,499.49507 C 48.146182,498.43197 47.673694,497.36886 47.201207,496.30577 C 47.201207,496.30577 50.036144,495.41986 49.681769,493.64801 C 49.327406,491.87618 47.909945,487.26942 47.909945,487.26942 C 47.437448,487.68284 46.576055,488.76044 46.492473,488.5097 C 46.339809,488.05172 47.663258,483.16288 47.378392,482.30828 C 46.95452,481.03669 45.95114,479.85366 45.075008,478.76462 C 44.50647,478.05793 45.03759,476.08072 47.201207,473.80348 C 43.733739,472.64616 41.176974,473.44912 39.759507,473.6263 C 38.342043,473.80348 35.622975,475.23327 36.038656,471.14574 C 33.889398,472.4353 32.073922,474.43955 29.837242,475.39814 C 28.35307,476.03421 26.529821,475.7525 24.876106,475.92969 C 24.049255,476.8156 23.390221,478.12325 22.39554,478.58744 C 21.618385,478.9501 20.505585,478.46931 19.560607,478.41026 C 19.265302,479.29617 19.307853,480.71013 18.674691,481.068 z"
         style="fill:#86140a;fill-opacity:1;fill-rule:evenodd;stroke:none;stroke-width:0.90420979px;stroke-linecap:butt;stroke-linejoin:miter;stroke-opacity:1" />
      <path
         id="path3155"
         d="M 20.155632,479.58489 L 16.040603,484.48373 L 18.392048,487.42304 L 16.824418,490.95021 L 16.236558,495.45714 L 19.175862,497.41668 L 20.547539,501.53172 L 23.878756,502.90339 L 26.034246,506.23462 L 29.561412,504.86292 L 32.304763,506.43055 L 37.203612,504.66697 L 40.142914,505.05886 L 41.122686,500.94385 L 47.001296,498.78836 L 45.041762,497.02478 L 46.413435,491.14617 L 44.257944,491.92997 L 43.474132,484.28778 L 45.825575,484.28778 L 41.710547,479.19298 L 39.359102,480.3687 C 39.359102,480.3687 35.244074,474.49009 34.460257,474.49009 C 33.676441,474.49009 30.345229,475.66582 30.345229,475.66582 L 26.622107,477.03749 L 23.878756,478.80107 L 20.155632,479.58489 z"
         style="fill:#392408;fill-opacity:1;fill-rule:evenodd;stroke:none;stroke-width:1px;stroke-linecap:butt;stroke-linejoin:miter;stroke-opacity:1" />
      <path
         sodipodi:nodetypes="cccc"
         id="path3159"
         d="M 41.524909,479.6742 L 39.030826,493.46095 L 39.515787,480.7134 L 41.524909,479.6742 z"
         style="fill:#110a02;fill-opacity:1;fill-rule:evenodd;stroke:none;stroke-width:1px;stroke-linecap:butt;stroke-linejoin:miter;stroke-opacity:1" />
      <path
         sodipodi:nodetypes="cccc"
         id="path3161"
         d="M 45.889555,491.8675 L 38.961546,493.80735 L 44.296113,499.5576 L 45.889555,491.8675 z"
         style="fill:#0f0902;fill-opacity:1;fill-rule:evenodd;stroke:none;stroke-width:1px;stroke-linecap:butt;stroke-linejoin:miter;stroke-opacity:1" />
      <path
         sodipodi:nodetypes="cccc"
         id="path3163"
         d="M 32.172093,505.93136 L 40.41643,502.95232 L 27.045365,502.53664 L 32.172093,505.93136 z"
         style="fill:#1f1304;fill-opacity:1;fill-rule:evenodd;stroke:none;stroke-width:1px;stroke-linecap:butt;stroke-linejoin:miter;stroke-opacity:1" />
      <path
         sodipodi:nodetypes="cccc"
         id="path3165"
         d="M 39.395344,484.74253 L 30.5155,480.4535 L 25.802622,491.11396 L 39.395344,484.74253 z"
         style="fill:#291804;fill-opacity:1;fill-rule:evenodd;stroke:none;stroke-width:1px;stroke-linecap:butt;stroke-linejoin:miter;stroke-opacity:1" />
      <path
         id="path3179"
         d="M 25.867604,491.1747 L 24.066322,496.30143 L 16.999747,491.10542 L 18.454629,487.50285 L 25.867604,491.1747 z"
         style="fill:#1d1103;fill-opacity:1;fill-rule:evenodd;stroke:none;stroke-width:1px;stroke-linecap:butt;stroke-linejoin:miter;stroke-opacity:1" />
      <path
         id="path3169"
         d="M 26.837525,502.39809 L 19.493831,497.27135 C 19.493831,497.27135 30.994331,494.98511 30.717211,495.05439 C 30.44009,495.12367 26.837525,502.46737 26.837525,502.39809 z"
         style="fill:#1d1103;fill-opacity:1;fill-rule:evenodd;stroke:none;stroke-width:1px;stroke-linecap:butt;stroke-linejoin:miter;stroke-opacity:1" />
      <path
         id="path3181"
         d="M 20.325193,479.88204 L 22.611436,480.43629 L 23.719921,479.05068 L 20.325193,479.88204 z"
         style="fill:#000000;fill-opacity:1;fill-rule:evenodd;stroke:none;stroke-width:1px;stroke-linecap:butt;stroke-linejoin:miter;stroke-opacity:1" />
      <path
         id="path3183"
         d="M 26.768245,477.24939 L 30.44009,480.15916 L 32.172093,475.37883 L 26.768245,477.24939 z"
         style="fill:#241503;fill-opacity:1;fill-rule:evenodd;stroke:none;stroke-width:1px;stroke-linecap:butt;stroke-linejoin:miter;stroke-opacity:1" />
      <path
         sodipodi:nodetypes="ccccccccccccccc"
         id="path3157"
         d="M 20.155632,479.58489 L 16.040603,484.48373 L 18.392048,487.42304 L 16.824418,490.95021 L 16.236558,495.45714 L 19.175862,497.41668 L 20.547539,501.53172 L 23.878756,502.90339 L 26.034246,506.23462 C 26.034246,506.23462 29.116088,484.51074 37.203612,477.4294 C 36.076876,475.95974 34.852164,474.49009 34.460257,474.49009 C 33.676441,474.49009 30.345229,475.66582 30.345229,475.66582 L 26.622107,477.03749 L 23.878756,478.80107 L 20.155632,479.58489 z"
         style="fill:url(#radialGradient3275);fill-opacity:1;fill-rule:evenodd;stroke:none;stroke-width:1px;stroke-linecap:butt;stroke-linejoin:miter;stroke-opacity:1" />
      <path
         sodipodi:nodetypes="ccccc"
         id="path3167"
         d="M 31.271451,495.19296 L 34.31978,502.3288 L 38.822986,493.94591 L 36.224981,486.25582 L 31.271451,495.19296 z"
         style="fill:#291905;fill-opacity:1;fill-rule:evenodd;stroke:none;stroke-width:1px;stroke-linecap:butt;stroke-linejoin:miter;stroke-opacity:1" />
      <path
         sodipodi:nodetypes="ccsc"
         id="path3227"
         d="M 196.24105,271.65063 C 220.96211,246.39794 245.68317,221.14524 270.40423,195.89254 C 257.64498,210.51252 245.67397,225.91363 232.12645,239.75249 C 220.95291,251.16632 208.20285,261.01792 196.24105,271.65063 z"
         style="fill:#f5f1ca;fill-opacity:1;fill-rule:evenodd;stroke:none;stroke-width:1px;stroke-linecap:butt;stroke-linejoin:miter;stroke-opacity:1" />
      <path
         sodipodi:nodetypes="cscs"
         id="path3229"
         d="M 221.05885,288.44553 C 215.82384,292.36187 216.83141,295.71995 220.16465,293.18188 C 275.84072,250.7878 363.7063,171.17148 363.7063,171.17148 C 363.7063,171.17148 264.30338,256.09414 221.05885,288.44553 z"
         style="fill:#f5f1ca;fill-opacity:1;fill-rule:evenodd;stroke:none;stroke-width:1px;stroke-linecap:butt;stroke-linejoin:miter;stroke-opacity:1" />
      <path
         id="path3231"
         d="M 297.51765,200.67727 L 300.70746,196.69 L 343.76996,161.60204 L 297.51765,200.67727 z"
         style="fill:#8dff8f;fill-opacity:1;fill-rule:evenodd;stroke:none;stroke-width:1px;stroke-linecap:butt;stroke-linejoin:miter;stroke-opacity:1" />
      <path
         sodipodi:nodetypes="ccsscssccc"
         id="path3233"
         d="M 204.21558,366.54762 L 197.0385,376.91451 C 197.0385,376.91451 289.19627,296.35435 330.21325,263.6761 C 343.98481,252.7043 363.58515,239.67652 377.26301,228.58815 C 395.82934,213.53679 437.07203,175.95621 437.07203,175.95621 C 437.07203,175.95621 394.01471,212.29134 374.87065,226.99324 C 365.76113,233.989 345.23213,251.43169 343.76996,249.32193 C 342.72484,247.81393 379.45279,216.92496 387.51799,205.67896 C 365.52648,226.5427 348.14407,242.40649 331.0107,258.09393 C 294.0928,291.89624 204.21558,366.54762 204.21558,366.54762 z"
         style="fill:#d1fff6;fill-opacity:1;fill-rule:evenodd;stroke:none;stroke-width:1px;stroke-linecap:butt;stroke-linejoin:miter;stroke-opacity:1" />
      <path
         sodipodi:nodetypes="cccc"
         id="path3235"
         d="M 421.92041,84.647771 L 405.37325,101.79302 L 527.18428,-1.0784914 L 421.92041,84.647771 z"
         style="fill:#d1f5ff;fill-opacity:1;fill-rule:evenodd;stroke:none;stroke-width:1px;stroke-linecap:butt;stroke-linejoin:miter;stroke-opacity:1" />
      <path
         sodipodi:nodetypes="cccc"
         id="path3237"
         d="M 347.75723,136.08353 L 344.16869,141.26697 L 390.02227,102.19175 L 347.75723,136.08353 z"
         style="fill:#d1fff6;fill-opacity:1;fill-rule:evenodd;stroke:none;stroke-width:1px;stroke-linecap:butt;stroke-linejoin:miter;stroke-opacity:1" />
      <path
         sodipodi:nodetypes="cscs"
         id="path3239"
         d="M 419.12933,152.83005 C 416.58898,155.34226 422.25006,154.62043 425.50896,151.23514 C 460.77731,114.59904 513.49466,71.888514 564.6646,29.224747 C 514.15921,68.034155 464.5691,107.89377 419.12933,152.83005 z"
         style="fill:#d1fff6;fill-opacity:1;fill-rule:evenodd;stroke:none;stroke-width:1px;stroke-linecap:butt;stroke-linejoin:miter;stroke-opacity:1" />
      <path
         sodipodi:nodetypes="cccc"
         id="path3241"
         d="M 450.62874,99.400663 L 453.81855,95.413389 L 533.96264,28.826017 L 450.62874,99.400663 z"
         style="fill:#a5c3ff;fill-opacity:1;fill-rule:evenodd;stroke:none;stroke-width:1px;stroke-linecap:butt;stroke-linejoin:miter;stroke-opacity:1" />
    </g>
  </g>
</svg>
